<?xml version="1.0" encoding="UTF-8" ?>
<!DOCTYPE svg PUBLIC "-//W3C//DTD SVG 1.1//EN" "http://www.w3.org/Graphics/SVG/1.1/DTD/svg11.dtd">
<svg width="396pt" height="238pt" viewBox="0 0 396 238" version="1.1" xmlns="http://www.w3.org/2000/svg">
<path fill="#ffffff" d=" M 0.00 0.00 L 396.00 0.00 L 396.00 79.00 C 371.56 78.98 347.12 79.04 322.69 78.97 C 328.40 83.16 332.71 89.72 332.44 97.02 C 332.69 104.90 327.33 111.77 320.59 115.30 C 326.32 117.27 331.85 120.77 334.51 126.42 C 340.33 138.38 333.83 154.34 321.40 159.03 C 346.27 158.96 371.13 159.02 396.00 159.00 L 396.00 238.00 L 0.00 238.00 L 0.00 159.00 C 21.14 159.00 42.29 159.01 63.43 159.00 C 57.09 132.33 50.71 105.67 44.37 79.01 C 29.58 78.99 14.79 79.00 0.00 79.00 L 0.00 0.00 Z" />
<path fill="#1690c7" d=" M 134.66 24.57 C 136.84 21.10 141.16 19.81 145.05 19.66 C 149.39 19.46 154.33 20.14 157.33 23.61 C 159.08 25.46 159.49 28.04 160.06 30.42 C 157.66 30.55 155.26 30.65 152.86 30.74 C 151.87 25.32 145.10 24.31 141.09 27.00 C 139.53 28.07 139.79 30.56 141.40 31.45 C 146.47 34.19 152.85 33.91 157.48 37.61 C 162.76 42.01 161.65 51.46 155.59 54.65 C 150.52 57.25 144.21 57.11 138.97 55.08 C 134.56 53.33 132.64 48.68 131.76 44.35 C 134.06 44.13 136.37 43.90 138.67 43.69 C 139.62 45.82 140.27 48.49 142.59 49.55 C 145.68 50.96 149.93 50.94 152.46 48.42 C 154.24 46.82 153.85 43.40 151.58 42.49 C 146.63 40.22 140.63 40.31 136.32 36.69 C 132.86 33.79 132.09 28.29 134.66 24.57 Z" />
<path fill="#1690c7" d=" M 164.07 20.19 C 173.55 20.19 183.04 20.19 192.52 20.19 C 192.52 22.22 192.52 24.24 192.52 26.27 C 188.99 26.27 185.46 26.27 181.93 26.27 C 181.93 36.18 181.93 46.09 181.93 56.00 C 179.52 56.00 177.10 56.00 174.69 56.00 C 174.69 46.09 174.69 36.18 174.69 26.27 C 171.15 26.27 167.61 26.27 164.07 26.27 C 164.06 24.24 164.07 22.22 164.07 20.19 Z" />
<path fill="#1690c7" d=" M 207.39 20.48 C 214.00 18.60 222.10 19.68 226.71 25.20 C 231.62 31.20 231.89 40.04 229.20 47.07 C 224.58 58.49 206.85 59.86 199.70 50.27 C 196.00 45.31 195.66 38.66 196.75 32.77 C 197.78 27.19 201.83 22.05 207.39 20.48 Z" />
<path fill="#1690c7" d=" M 236.65 20.19 C 243.39 20.45 250.26 19.58 256.93 20.85 C 265.79 23.24 266.49 37.46 258.30 41.18 C 253.75 43.02 248.68 42.34 243.88 42.52 C 243.88 47.01 243.87 51.50 243.88 56.00 C 241.46 56.00 239.05 56.00 236.63 56.00 C 236.64 44.06 236.61 32.13 236.65 20.19 Z" />
<path fill="#ffffff" d=" M 209.49 26.69 C 213.29 25.14 218.25 25.81 220.85 29.20 C 223.85 33.31 223.73 38.91 222.53 43.63 C 221.26 48.06 216.59 51.12 212.01 50.17 C 207.50 49.69 204.36 45.37 203.96 41.07 C 203.17 35.86 204.13 29.11 209.49 26.69 Z" />
<path fill="#ffffff" d=" M 243.88 26.26 C 247.24 26.41 250.79 25.84 254.01 27.05 C 257.27 28.49 257.47 33.70 254.27 35.34 C 251.10 36.96 247.32 36.20 243.88 36.43 C 243.87 33.04 243.88 29.65 243.88 26.26 Z" />
<path fill="#1690c7" d=" M 0.00 79.00 C 14.79 79.00 29.58 78.99 44.37 79.01 C 50.71 105.67 57.09 132.33 63.43 159.00 C 42.29 159.01 21.14 159.00 0.00 159.00 L 0.00 79.00 Z" />
<path fill="#1690c7" d=" M 62.01 79.00 C 70.94 79.00 79.86 79.00 88.79 79.00 C 83.89 97.37 79.02 115.74 74.11 134.11 C 70.05 115.75 66.06 97.37 62.01 79.00 Z" />
<path fill="#1690c7" d=" M 111.41 79.00 C 120.22 79.00 129.03 79.00 137.83 79.00 C 133.70 97.73 129.64 116.47 125.46 135.19 C 120.88 116.43 116.07 97.73 111.41 79.00 Z" />
<path fill="#1690c7" d=" M 155.18 79.00 C 161.70 79.00 168.23 79.00 174.75 79.00 C 174.74 105.67 174.74 132.33 174.75 159.00 C 161.76 159.00 148.76 159.00 135.77 159.00 C 142.24 132.33 148.71 105.66 155.18 79.00 Z" />
<path fill="#1690c7" d=" M 238.40 79.01 C 247.20 78.99 256.01 79.00 264.81 79.00 C 264.80 105.67 264.80 132.33 264.81 159.00 C 256.56 159.00 248.30 159.00 240.05 159.00 C 240.05 154.84 240.05 150.69 240.05 146.54 C 224.06 146.53 208.06 146.53 192.07 146.54 C 192.06 138.74 192.06 130.94 192.07 123.14 C 206.44 123.13 220.81 123.14 235.18 123.13 C 235.19 118.32 235.19 113.50 235.18 108.69 C 220.81 108.68 206.44 108.68 192.07 108.69 C 192.06 102.33 192.06 95.98 192.06 89.62 C 207.51 89.62 222.96 89.63 238.41 89.62 C 238.41 86.08 238.41 82.55 238.40 79.01 Z" />
<path fill="#1690c7" d=" M 322.69 78.97 C 347.12 79.04 371.56 78.98 396.00 79.00 L 396.00 159.00 C 371.13 159.02 346.27 158.96 321.40 159.03 C 333.83 154.34 340.33 138.38 334.51 126.42 C 331.85 120.77 326.32 117.27 320.59 115.30 C 327.33 111.77 332.69 104.90 332.44 97.02 C 332.71 89.72 328.40 83.16 322.69 78.97 Z" />
<path fill="#1690c7" d=" M 282.13 89.39 C 289.44 89.41 296.75 89.32 304.06 89.51 C 307.37 89.63 311.02 90.18 313.37 92.75 C 316.74 96.74 316.29 103.74 311.87 106.80 C 308.99 108.85 305.32 109.11 301.90 109.20 C 295.31 109.31 288.72 109.25 282.12 109.26 C 282.12 102.64 282.11 96.01 282.13 89.39 Z" />
<path fill="#1690c7" d=" M 99.77 96.80 C 105.34 117.52 110.83 138.26 116.35 158.99 C 105.32 159.01 94.28 159.00 83.25 159.00 C 88.76 138.27 94.24 117.53 99.77 96.80 Z" />
<path fill="#1690c7" d=" M 282.12 123.55 C 290.43 123.64 298.76 123.27 307.05 123.98 C 310.82 124.21 314.84 125.63 316.98 128.92 C 319.52 132.94 319.37 138.66 316.40 142.41 C 313.80 145.58 309.48 146.30 305.61 146.42 C 297.79 146.64 289.96 146.49 282.13 146.54 C 282.12 138.88 282.12 131.21 282.12 123.55 Z" />
<path fill="#1690c7" d=" M 62.61 180.19 C 68.77 180.34 74.97 179.82 81.10 180.60 C 86.81 181.40 90.91 186.55 91.94 191.99 C 93.12 198.11 92.99 205.02 89.33 210.32 C 87.13 213.75 83.09 215.59 79.11 215.84 C 73.62 216.20 68.11 215.91 62.61 216.00 C 62.61 204.06 62.60 192.13 62.61 180.19 Z" />
<path fill="#1690c7" d=" M 98.41 180.20 C 100.82 180.20 103.24 180.20 105.65 180.20 C 105.66 192.13 105.65 204.06 105.66 216.00 C 103.24 215.99 100.82 216.00 98.41 216.00 C 98.41 204.06 98.41 192.13 98.41 180.20 Z" />
<path fill="#1690c7" d=" M 112.68 186.49 C 114.03 182.56 118.07 180.27 122.03 179.86 C 126.77 179.28 132.27 179.60 135.87 183.12 C 137.94 184.99 138.48 187.82 139.05 190.42 C 136.65 190.55 134.26 190.65 131.86 190.74 C 130.86 185.29 124.02 184.31 120.02 187.04 C 118.52 188.15 118.84 190.61 120.43 191.47 C 125.32 194.07 131.31 193.94 135.93 197.17 C 141.09 200.85 141.11 209.33 136.37 213.37 C 132.77 216.48 127.64 216.88 123.10 216.38 C 119.46 216.07 115.67 214.58 113.53 211.48 C 111.90 209.44 111.50 206.79 110.76 204.35 C 113.07 204.12 115.37 203.90 117.67 203.69 C 118.64 206.03 119.50 208.93 122.18 209.82 C 125.19 210.89 129.11 210.82 131.47 208.41 C 133.24 206.81 132.85 203.38 130.57 202.48 C 125.82 200.33 120.22 200.30 115.90 197.17 C 112.65 194.79 111.24 190.27 112.68 186.49 Z" />
<path fill="#1690c7" d=" M 155.94 180.19 C 158.49 180.19 161.04 180.20 163.59 180.20 C 168.36 192.13 173.14 204.06 177.92 216.00 C 175.30 216.00 172.67 216.00 170.05 216.00 C 169.01 213.29 167.96 210.59 166.91 207.88 C 162.15 207.88 157.39 207.88 152.64 207.88 C 151.64 210.58 150.66 213.29 149.68 216.00 C 147.12 215.99 144.55 216.00 141.99 216.00 C 146.65 204.06 151.28 192.12 155.94 180.19 Z" />
<path fill="#1690c7" d=" M 181.66 180.19 C 188.14 180.32 194.64 179.92 201.11 180.44 C 205.87 180.77 210.46 185.04 209.81 190.04 C 209.69 193.06 207.44 195.27 205.18 196.98 C 207.49 198.15 209.99 199.55 210.91 202.14 C 213.26 207.65 209.48 214.84 203.42 215.59 C 196.20 216.38 188.91 215.84 181.65 216.00 C 181.66 204.06 181.65 192.13 181.66 180.19 Z" />
<path fill="#1690c7" d=" M 217.41 180.20 C 219.82 180.20 222.24 180.20 224.65 180.20 C 224.66 192.13 224.65 204.06 224.66 216.00 C 222.24 216.00 219.82 215.99 217.41 216.00 C 217.42 204.06 217.41 192.13 217.41 180.20 Z" />
<path fill="#1690c7" d=" M 231.83 180.50 C 234.24 180.50 236.65 180.49 239.06 180.49 C 239.07 190.32 239.06 200.14 239.06 209.97 C 245.05 209.97 251.04 209.97 257.03 209.97 C 257.03 211.98 257.03 213.99 257.03 216.00 C 248.63 216.00 240.23 216.00 231.83 216.00 C 231.83 204.16 231.83 192.33 231.83 180.50 Z" />
<path fill="#1690c7" d=" M 262.41 180.20 C 264.82 180.20 267.24 180.20 269.65 180.20 C 269.66 192.13 269.64 204.06 269.66 215.99 C 267.24 215.99 264.82 216.00 262.41 216.00 C 262.42 204.06 262.40 192.13 262.41 180.20 Z" />
<path fill="#1690c7" d=" M 274.07 180.20 C 283.55 180.19 293.04 180.19 302.52 180.19 C 302.52 182.22 302.52 184.24 302.52 186.27 C 298.99 186.27 295.46 186.27 291.93 186.27 C 291.93 196.18 291.93 206.09 291.93 216.00 C 289.52 216.00 287.10 216.00 284.69 216.00 C 284.69 206.09 284.69 196.18 284.69 186.27 C 281.15 186.27 277.61 186.27 274.07 186.27 C 274.06 184.24 274.07 182.22 274.07 180.20 Z" />
<path fill="#1690c7" d=" M 303.93 180.20 C 306.76 180.18 309.59 180.20 312.42 180.21 C 315.21 184.93 318.01 189.64 320.82 194.35 C 323.58 189.63 326.32 184.90 329.08 180.19 C 331.85 180.20 334.63 180.19 337.40 180.20 C 333.52 186.35 329.64 192.50 325.71 198.62 C 325.12 199.67 324.29 200.70 324.29 201.97 C 324.10 206.64 324.32 211.32 324.24 216.00 C 321.83 216.00 319.43 216.00 317.03 216.00 C 316.89 211.01 317.31 206.00 316.85 201.03 C 312.91 193.88 308.14 187.20 303.93 180.20 Z" />
<path fill="#ffffff" d=" M 69.85 186.25 C 73.70 186.47 77.91 185.67 81.43 187.62 C 84.79 189.85 85.07 194.36 85.12 198.01 C 85.02 201.33 85.00 205.08 82.77 207.77 C 79.24 210.93 74.16 209.74 69.86 209.98 C 69.85 202.07 69.85 194.16 69.85 186.25 Z" />
<path fill="#ffffff" d=" M 188.90 186.18 C 192.73 186.28 196.64 185.80 200.42 186.62 C 203.90 187.65 203.45 193.46 199.89 194.05 C 196.26 194.71 192.56 194.37 188.90 194.42 C 188.90 191.67 188.90 188.92 188.90 186.18 Z" />
<path fill="#ffffff" d=" M 159.66 188.60 C 161.33 193.00 162.95 197.42 164.58 201.83 C 161.34 201.83 158.10 201.84 154.86 201.84 C 156.46 197.42 158.05 193.01 159.66 188.60 Z" />
<path fill="#ffffff" d=" M 188.91 200.41 C 193.80 200.69 199.27 199.35 203.55 202.43 C 204.25 204.90 204.47 208.46 201.46 209.44 C 197.36 210.40 193.08 209.83 188.90 209.96 C 188.90 206.78 188.90 203.59 188.91 200.41 Z" />
</svg>
